<svg width="606" height="606" viewBox="0 0 606 606" fill="none" xmlns="http://www.w3.org/2000/svg">
<path d="M0 99C0 44.3238 44.3238 0 99 0H506.861C561.538 0 605.861 44.3238 605.861 99V506.861C605.861 561.538 561.538 605.861 506.861 605.861H99C44.3238 605.861 0 561.538 0 506.861V99Z" fill="#151515"/>
<mask id="mask0_672_29" style="mask-type:alpha" maskUnits="userSpaceOnUse" x="0" y="0" width="606" height="606">
<path d="M0 99C0 44.3238 44.3238 0 99 0H506.861C561.538 0 605.861 44.3238 605.861 99V506.861C605.861 561.538 561.538 605.861 506.861 605.861H99C44.3238 605.861 0 561.538 0 506.861V99Z" fill="#DFDFDF"/>
</mask>
<g mask="url(#mask0_672_29)">
<path d="M178.791 315.999C178.791 241.645 191.215 192.772 204.306 161.937C210.847 146.528 217.524 135.699 222.817 128.513C225.461 124.924 227.749 122.256 229.489 120.39C230.359 119.457 231.09 118.726 231.659 118.181C231.943 117.909 232.187 117.683 232.387 117.501C232.486 117.411 232.576 117.331 232.653 117.262C232.692 117.228 232.728 117.197 232.761 117.168C232.777 117.154 232.793 117.14 232.807 117.127C232.815 117.121 232.826 117.111 232.83 117.108C232.835 117.103 232.842 117.101 234.147 118.613L252.403 139.843C253.705 141.352 253.715 141.353 253.72 141.349C253.723 141.346 253.732 141.338 253.738 141.333C253.75 141.322 253.762 141.312 253.772 141.303C253.794 141.285 253.812 141.268 253.828 141.254C253.858 141.228 253.877 141.21 253.886 141.203C253.875 141.212 253.847 141.239 253.803 141.282C253.661 141.417 253.351 141.723 252.895 142.211C251.984 143.189 250.485 144.909 248.583 147.491C244.785 152.647 239.341 161.3 233.762 174.442C222.61 200.709 210.791 245.222 210.791 315.999C210.791 390.335 198.446 438.723 185.391 469.092C178.867 484.271 172.196 494.873 166.886 501.897C164.234 505.404 161.933 508.005 160.175 509.827C159.296 510.737 158.554 511.451 157.973 511.986C157.684 512.253 157.433 512.475 157.227 512.654C157.124 512.743 157.033 512.823 156.952 512.891C156.912 512.925 156.873 512.957 156.839 512.986C156.821 513 156.805 513.014 156.789 513.027C156.781 513.033 156.769 513.043 156.765 513.046C156.754 513.055 156.704 513.016 146.592 500.698C136.44 488.331 136.429 488.34 136.419 488.348C136.415 488.351 136.405 488.359 136.398 488.365C136.385 488.375 136.374 488.386 136.362 488.395C136.339 488.414 136.319 488.431 136.302 488.446C136.267 488.475 136.244 488.495 136.232 488.505C136.209 488.526 136.229 488.508 136.292 488.45C136.418 488.334 136.712 488.057 137.151 487.602C138.029 486.693 139.493 485.068 141.36 482.598C145.088 477.668 150.467 469.308 155.992 456.455C167.038 430.758 178.791 386.797 178.791 315.999Z" fill="#8C8C8E"/>
<path d="M258.147 128.697C258.152 128.747 258.158 128.833 258.163 128.957C258.166 129.019 258.167 129.091 258.169 129.173C258.17 129.214 258.17 129.257 258.171 129.303C258.171 129.326 258.172 129.35 258.172 129.375C258.172 129.387 258.172 129.406 258.172 129.412C258.172 129.426 258.172 129.441 251.422 129.447L232.922 129.453C226.189 129.459 226.172 129.474 226.172 129.489C226.172 129.496 226.172 129.516 226.172 129.53C226.172 129.557 226.173 129.585 226.173 129.614C226.173 129.672 226.174 129.734 226.175 129.799C226.177 129.928 226.182 130.072 226.188 130.228C226.201 130.54 226.221 130.905 226.255 131.318C226.323 132.144 226.444 133.167 226.653 134.358C227.073 136.742 227.852 139.801 229.285 143.289C232.193 150.364 237.619 158.769 247.396 166.699C266.749 182.396 301.633 195.093 364.591 195.093C424.053 195.093 450.379 207.217 461.63 216.342C467.154 220.823 469.38 224.829 470.298 227.062C470.777 228.229 470.955 229.049 471.014 229.38C471.043 229.546 471.041 229.589 471.033 229.49C471.029 229.44 471.023 229.354 471.019 229.23C471.016 229.168 471.014 229.096 471.013 229.014C471.012 228.973 471.011 228.93 471.011 228.883C471.011 228.86 471.01 228.837 471.01 228.812C471.01 228.8 471.01 228.781 471.01 228.775C471.01 228.761 471.01 228.747 477.76 228.741L496.26 228.735C503.01 228.729 503.01 228.714 503.01 228.699C503.01 228.692 503.01 228.672 503.01 228.659C503.01 228.631 503.009 228.603 503.009 228.574C503.008 228.516 503.007 228.454 503.006 228.389C503.003 228.26 502.999 228.116 502.993 227.96C502.981 227.647 502.96 227.283 502.926 226.87C502.858 226.044 502.738 225.021 502.528 223.83C502.108 221.446 501.33 218.387 499.896 214.899C496.989 207.824 491.564 199.419 481.787 191.489C462.434 175.792 427.549 163.093 364.591 163.093C305.13 163.093 278.804 150.971 267.553 141.845C262.028 137.364 259.802 133.358 258.884 131.125C258.404 129.958 258.226 129.138 258.168 128.807C258.139 128.641 258.139 128.598 258.147 128.697Z" fill="#8C8C8E"/>
<path d="M85.0508 15.9707C85.0508 -11.0913 106.989 -33.0293 134.051 -33.0293H350.301C377.363 -33.0293 399.301 -11.0912 399.301 15.9707V79.4906C399.301 106.553 377.363 128.491 350.301 128.491H134.051C106.989 128.491 85.0508 106.553 85.0508 79.4906V15.9707Z" fill="#528A64"/>
<path d="M-11.3203 549.918C-11.3203 522.856 10.6177 500.918 37.6797 500.918H253.93C280.992 500.918 302.93 522.856 302.93 549.918V613.438C302.93 640.5 280.992 662.438 253.93 662.438H37.6797C10.6177 662.438 -11.3203 640.5 -11.3203 613.438V549.918Z" fill="#E85A1D"/>
<path d="M329.887 277.736C329.887 250.674 351.825 228.736 378.887 228.736H595.137C622.199 228.736 644.137 250.674 644.137 277.736V341.256C644.137 368.318 622.199 390.256 595.137 390.256H378.887C351.825 390.256 329.887 368.318 329.887 341.256V277.736Z" fill="#82589C"/>
<path d="M-92.8984 283.665C-92.8984 232.358 -51.306 190.766 0.000976562 190.766V190.766C51.3079 190.766 92.9004 232.358 92.9004 283.665V283.665C92.9004 334.972 51.3079 376.564 0.000976562 376.564V376.564C-51.306 376.564 -92.8984 334.972 -92.8984 283.665V283.665Z" fill="#69696A"/>
<path d="M384.537 497.656C384.537 484.075 395.547 473.064 409.129 473.064H538.006C551.587 473.064 562.598 484.075 562.598 497.656C562.598 511.238 551.587 522.248 538.006 522.248H409.129C395.547 522.248 384.537 511.238 384.537 497.656Z" fill="#3595B0"/>
<path d="M524.504 497.656C524.504 484.075 535.514 473.064 549.096 473.064H662.626C676.208 473.064 687.218 484.075 687.218 497.656C687.218 511.238 676.208 522.248 662.626 522.248H549.096C535.514 522.248 524.504 511.238 524.504 497.656Z" fill="#909090"/>
<path d="M502.357 498.188C502.357 479.745 517.308 464.795 535.75 464.795C554.192 464.795 569.143 479.745 569.143 498.188C569.143 516.63 554.192 531.58 535.75 531.58C517.308 531.58 502.357 516.63 502.357 498.188Z" fill="#F2F2F2"/>
<path d="M208.715 128.51C208.715 110.03 223.696 95.0488 242.176 95.0488V95.0488C260.656 95.0488 275.637 110.03 275.637 128.51V128.51C275.637 146.99 260.656 161.971 242.176 161.971V161.971C223.696 161.971 208.715 146.99 208.715 128.51V128.51Z" fill="#F2F2F2"/>
<path d="M453.572 228.717C453.572 210.237 468.553 195.256 487.033 195.256V195.256C505.513 195.256 520.494 210.237 520.494 228.717V228.717C520.494 247.197 505.513 262.178 487.033 262.178V262.178C468.553 262.178 453.572 247.197 453.572 228.717V228.717Z" fill="#F2F2F2"/>
<path d="M112.365 500.939C112.365 482.459 127.346 467.479 145.826 467.479V467.479C164.306 467.479 179.287 482.459 179.287 500.939V500.939C179.287 519.419 164.306 534.4 145.826 534.4V534.4C127.346 534.4 112.365 519.419 112.365 500.939V500.939Z" fill="#F2F2F2"/>
</g>
</svg>
