<svg width="934" height="934" viewBox="0 0 934 934" fill="none" xmlns="http://www.w3.org/2000/svg">
<path d="M0 99C0 44.3238 44.3238 0 99 0H834.197C888.873 0 933.197 44.3238 933.197 99V834.197C933.197 888.873 888.873 933.197 834.197 933.197H99C44.3238 933.197 0 888.873 0 834.197V99Z" fill="#DFDFDF"/>
<path d="M834.197 885.197V933.197H99V885.197H834.197ZM885.197 834.197V99C885.197 70.8335 862.364 48 834.197 48H99C70.8335 48 48 70.8335 48 99V834.197C48 862.364 70.8335 885.197 99 885.197V933.197C44.7509 933.197 0.692762 889.563 0.0078125 835.477L0 834.197V99C7.63038e-06 44.3238 44.3238 1.14115e-07 99 0H834.197L835.477 0.0078125C889.563 0.692769 933.197 44.7509 933.197 99V834.197L933.189 835.477C932.51 889.137 889.137 932.51 835.477 933.189L834.197 933.197V885.197C862.364 885.197 885.197 862.364 885.197 834.197Z" fill="#151517"/>
<path d="M346.756 472.963C346.756 400.148 358.923 352.265 371.756 322.036C378.169 306.93 384.717 296.308 389.914 289.252C392.509 285.729 394.758 283.108 396.469 281.272C397.325 280.354 398.045 279.634 398.606 279.096C398.887 278.827 399.128 278.604 399.326 278.424C399.424 278.335 399.512 278.256 399.589 278.188C399.628 278.154 399.664 278.123 399.697 278.094C399.713 278.08 399.729 278.066 399.744 278.053C399.751 278.047 399.762 278.037 399.766 278.034C399.771 278.029 399.781 278.03 401.084 279.539L419.339 300.769C420.644 302.281 420.651 302.279 420.656 302.275C420.659 302.272 420.668 302.264 420.674 302.258C420.686 302.248 420.698 302.238 420.709 302.229C420.73 302.21 420.749 302.194 420.764 302.18C420.796 302.152 420.816 302.134 420.825 302.125C420.843 302.109 420.818 302.133 420.751 302.197C420.617 302.325 420.317 302.619 419.876 303.093C418.992 304.041 417.533 305.713 415.679 308.23C411.978 313.255 406.662 321.701 401.211 334.54C390.317 360.202 378.756 403.725 378.756 472.963C378.756 545.759 366.665 593.168 353.867 622.943C347.47 637.824 340.928 648.226 335.713 655.123C333.11 658.567 330.848 661.122 329.118 662.915C328.253 663.81 327.522 664.514 326.949 665.041C326.662 665.305 326.416 665.525 326.211 665.703C326.109 665.791 326.018 665.87 325.938 665.938C325.898 665.972 325.86 666.003 325.826 666.032C325.808 666.046 325.792 666.06 325.776 666.073C325.768 666.079 325.756 666.089 325.752 666.092C325.747 666.097 325.741 666.102 324.468 664.559L306.689 642.928C305.416 641.386 305.411 641.39 305.406 641.394C305.403 641.397 305.392 641.405 305.385 641.411C305.372 641.421 305.361 641.431 305.349 641.441C305.326 641.46 305.305 641.478 305.288 641.493C305.253 641.522 305.229 641.543 305.216 641.554C305.191 641.576 305.209 641.561 305.268 641.506C305.386 641.397 305.669 641.13 306.094 640.69C306.944 639.81 308.368 638.23 310.187 635.824C313.819 631.02 319.07 622.862 324.467 610.305C335.257 585.203 346.756 542.222 346.756 472.963Z" fill="#8C8C8E"/>
<path d="M425.106 289.606C425.111 289.659 425.117 289.748 425.122 289.874C425.125 289.937 425.126 290.01 425.128 290.092C425.129 290.133 425.129 290.177 425.13 290.224C425.13 290.247 425.131 290.271 425.131 290.295C425.131 290.307 425.131 290.326 425.131 290.332C425.131 290.346 425.131 290.361 418.381 290.367L399.881 290.373C393.146 290.38 393.131 290.395 393.131 290.409C393.131 290.416 393.131 290.436 393.131 290.449C393.131 290.477 393.132 290.505 393.132 290.534C393.132 290.592 393.133 290.654 393.135 290.719C393.137 290.848 393.141 290.991 393.147 291.146C393.16 291.456 393.18 291.817 393.214 292.227C393.281 293.045 393.4 294.057 393.607 295.234C394.022 297.589 394.791 300.607 396.204 304.045C399.071 311.021 404.416 319.294 414.03 327.092C433.059 342.525 467.294 354.961 528.953 354.961C587.117 354.961 612.794 366.821 623.72 375.683C629.083 380.032 631.227 383.907 632.104 386.041C632.564 387.158 632.731 387.937 632.784 388.239C632.811 388.391 632.809 388.423 632.8 388.317C632.795 388.263 632.789 388.174 632.784 388.048C632.782 387.985 632.78 387.912 632.778 387.829C632.777 387.788 632.777 387.744 632.776 387.697C632.776 387.674 632.775 387.65 632.775 387.626C632.775 387.614 632.775 387.595 632.775 387.589C632.776 387.575 632.822 387.561 639.525 387.555L658.025 387.549C664.709 387.543 664.775 387.528 664.775 387.514C664.775 387.507 664.775 387.486 664.775 387.473C664.775 387.446 664.775 387.418 664.774 387.389C664.774 387.331 664.773 387.269 664.771 387.204C664.769 387.075 664.765 386.933 664.759 386.777C664.746 386.467 664.726 386.106 664.692 385.696C664.625 384.878 664.506 383.865 664.299 382.689C663.884 380.333 663.115 377.316 661.702 373.878C658.835 366.902 653.491 358.628 643.877 350.83C624.848 335.397 590.613 322.961 528.953 322.961C470.791 322.961 445.114 311.101 434.187 302.239C428.824 297.89 426.679 294.015 425.802 291.88C425.343 290.763 425.175 289.985 425.122 289.683C425.095 289.531 425.098 289.499 425.106 289.606Z" fill="#8C8C8E"/>
<path d="M255.342 180.34C255.342 153.278 277.28 131.34 304.342 131.34H513.926C540.988 131.34 562.926 153.278 562.926 180.34V240.434C562.926 267.496 540.988 289.434 513.926 289.434H304.342C277.28 289.434 255.342 267.496 255.342 240.434V180.34Z" fill="#151517"/>
<path d="M161.016 702.961C161.016 675.899 182.954 653.961 210.016 653.961H419.6C446.662 653.961 468.6 675.899 468.6 702.961V763.055C468.6 790.117 446.662 812.055 419.6 812.055H210.016C182.954 812.055 161.016 790.117 161.016 763.055V702.961Z" fill="#151517"/>
<path d="M494.984 436.553C494.984 409.491 516.922 387.553 543.984 387.553H753.568C780.63 387.553 802.568 409.491 802.568 436.553V496.646C802.568 523.708 780.63 545.646 753.568 545.646H543.984C516.922 545.646 494.984 523.708 494.984 496.646V436.553Z" fill="#151517"/>
<path d="M392.064 289.433C392.064 280.005 399.707 272.363 409.134 272.363V272.363C418.561 272.363 426.203 280.005 426.203 289.433V289.433C426.203 298.86 418.561 306.502 409.134 306.502V306.502C399.707 306.502 392.064 298.86 392.064 289.433V289.433Z" fill="#697284"/>
<path d="M426.203 289.433C426.203 280.005 418.561 272.363 409.134 272.363C399.707 272.363 392.064 280.005 392.064 289.433C392.064 298.86 399.707 306.502 409.134 306.502C418.561 306.502 426.203 298.86 426.203 289.433ZM442.203 289.433C442.203 307.696 427.397 322.502 409.134 322.502C390.87 322.502 376.064 307.696 376.064 289.433C376.064 271.169 390.87 256.363 409.134 256.363C427.397 256.363 442.203 271.169 442.203 289.433Z" fill="#697284"/>
<path d="M631.707 387.554C631.707 378.127 639.349 370.484 648.776 370.484V370.484C658.204 370.484 665.846 378.127 665.846 387.554V387.554C665.846 396.981 658.204 404.623 648.776 404.623V404.623C639.349 404.623 631.707 396.981 631.707 387.554V387.554Z" fill="#697284"/>
<path d="M665.846 387.554C665.846 378.127 658.204 370.484 648.776 370.484C639.349 370.484 631.707 378.127 631.707 387.554C631.707 396.981 639.349 404.623 648.776 404.623C658.204 404.623 665.846 396.981 665.846 387.554ZM681.846 387.554C681.846 405.817 667.04 420.623 648.776 420.623C630.513 420.623 615.707 405.817 615.707 387.554C615.707 369.29 630.513 354.484 648.776 354.484C667.04 354.484 681.846 369.29 681.846 387.554Z" fill="#697284"/>
<path d="M297.738 653.96C297.738 644.533 305.38 636.891 314.808 636.891V636.891C324.235 636.891 331.877 644.533 331.877 653.96V653.96C331.877 663.387 324.235 671.029 314.808 671.029V671.029C305.38 671.029 297.738 663.387 297.738 653.96V653.96Z" fill="#697284"/>
<path d="M331.877 653.96C331.877 644.533 324.235 636.891 314.808 636.891C305.38 636.891 297.738 644.533 297.738 653.96C297.738 663.387 305.38 671.029 314.808 671.029C324.235 671.029 331.877 663.387 331.877 653.96ZM347.877 653.96C347.877 672.224 333.071 687.029 314.808 687.029C296.544 687.029 281.738 672.224 281.738 653.96C281.738 635.696 296.544 620.891 314.808 620.891C333.071 620.891 347.877 635.696 347.877 653.96Z" fill="#697284"/>
</svg>