<svg width="606" height="606" viewBox="0 0 606 606" fill="none" xmlns="http://www.w3.org/2000/svg">
<path d="M0 99C0 44.3238 44.3238 0 99 0H506.861C561.538 0 605.861 44.3238 605.861 99V506.861C605.861 561.538 561.538 605.861 506.861 605.861H99C44.3238 605.861 0 561.538 0 506.861V99Z" fill="#151515"/>
<mask id="mask0_670_104" style="mask-type:alpha" maskUnits="userSpaceOnUse" x="0" y="0" width="606" height="606">
<path d="M0 99C0 44.3238 44.3238 0 99 0H506.861C561.538 0 605.861 44.3238 605.861 99V506.861C605.861 561.538 561.538 605.861 506.861 605.861H99C44.3238 605.861 0 561.538 0 506.861V99Z" fill="#DFDFDF"/>
</mask>
<g mask="url(#mask0_670_104)">
<path d="M178.791 315.999C178.791 241.645 191.215 192.772 204.306 161.937C210.847 146.528 217.524 135.699 222.817 128.513C225.461 124.924 227.749 122.256 229.489 120.39C230.359 119.457 231.09 118.726 231.659 118.181C231.943 117.909 232.187 117.683 232.387 117.501C232.486 117.411 232.576 117.331 232.653 117.262C232.692 117.228 232.728 117.197 232.761 117.168C232.777 117.154 232.793 117.14 232.807 117.127C232.815 117.121 232.826 117.111 232.83 117.108C232.835 117.103 232.842 117.101 234.147 118.613L252.403 139.843C253.705 141.352 253.715 141.353 253.72 141.349C253.723 141.346 253.732 141.338 253.738 141.333C253.75 141.322 253.762 141.312 253.772 141.303C253.794 141.285 253.812 141.268 253.828 141.254C253.858 141.228 253.877 141.21 253.886 141.203C253.875 141.212 253.847 141.239 253.803 141.282C253.661 141.417 253.351 141.723 252.895 142.211C251.984 143.189 250.485 144.909 248.583 147.491C244.785 152.647 239.341 161.3 233.762 174.442C222.61 200.709 210.791 245.222 210.791 315.999C210.791 390.335 198.446 438.723 185.391 469.092C178.867 484.271 172.196 494.873 166.886 501.897C164.234 505.404 161.933 508.005 160.175 509.827C159.296 510.737 158.554 511.451 157.973 511.986C157.684 512.253 157.433 512.475 157.227 512.654C157.124 512.743 157.033 512.823 156.952 512.891C156.912 512.925 156.873 512.957 156.839 512.986C156.821 513 156.805 513.014 156.789 513.027C156.781 513.033 156.769 513.043 156.765 513.046C156.754 513.055 156.704 513.016 146.592 500.698C136.44 488.331 136.429 488.34 136.419 488.348C136.415 488.351 136.405 488.359 136.398 488.365C136.385 488.375 136.374 488.386 136.362 488.395C136.339 488.414 136.319 488.431 136.302 488.446C136.267 488.475 136.244 488.495 136.232 488.505C136.209 488.526 136.229 488.508 136.292 488.45C136.418 488.334 136.712 488.057 137.151 487.602C138.029 486.693 139.493 485.068 141.36 482.598C145.088 477.668 150.467 469.308 155.992 456.455C167.038 430.758 178.791 386.797 178.791 315.999Z" fill="#8C8C8E"/>
<path d="M258.147 128.697C258.152 128.747 258.158 128.833 258.163 128.957C258.166 129.019 258.167 129.091 258.169 129.173C258.17 129.214 258.17 129.257 258.171 129.303C258.171 129.326 258.172 129.35 258.172 129.375C258.172 129.387 258.172 129.406 258.172 129.412C258.172 129.426 258.172 129.441 251.422 129.447L232.922 129.453C226.189 129.459 226.172 129.474 226.172 129.489C226.172 129.496 226.172 129.516 226.172 129.53C226.172 129.557 226.173 129.585 226.173 129.614C226.173 129.672 226.174 129.734 226.175 129.799C226.177 129.928 226.182 130.072 226.188 130.228C226.201 130.54 226.221 130.905 226.255 131.318C226.323 132.144 226.444 133.167 226.653 134.358C227.073 136.742 227.852 139.801 229.285 143.289C232.193 150.364 237.619 158.769 247.395 166.699C266.749 182.396 301.633 195.093 364.591 195.093C424.053 195.093 450.379 207.217 461.63 216.342C467.154 220.823 469.38 224.829 470.298 227.062C470.777 228.229 470.955 229.049 471.014 229.38C471.043 229.546 471.041 229.589 471.033 229.49C471.029 229.44 471.023 229.354 471.019 229.23C471.016 229.168 471.014 229.096 471.013 229.014C471.012 228.973 471.011 228.93 471.011 228.883C471.01 228.86 471.01 228.837 471.01 228.812C471.01 228.8 471.01 228.781 471.01 228.775C471.01 228.761 471.01 228.747 477.76 228.741L496.26 228.735C503.01 228.729 503.01 228.714 503.01 228.699C503.01 228.692 503.01 228.672 503.01 228.659C503.01 228.631 503.009 228.603 503.009 228.574C503.008 228.516 503.007 228.454 503.006 228.389C503.003 228.26 502.999 228.116 502.993 227.96C502.981 227.647 502.96 227.283 502.926 226.87C502.858 226.044 502.738 225.021 502.528 223.83C502.108 221.446 501.33 218.387 499.896 214.899C496.989 207.824 491.564 199.419 481.787 191.489C462.434 175.792 427.549 163.093 364.591 163.093C305.13 163.093 278.804 150.971 267.553 141.845C262.027 137.364 259.802 133.358 258.884 131.125C258.404 129.958 258.226 129.138 258.168 128.807C258.139 128.641 258.139 128.598 258.147 128.697Z" fill="#8C8C8E"/>
<path d="M85.0508 15.9707C85.0508 -11.0913 106.989 -33.0293 134.051 -33.0293H350.301C377.363 -33.0293 399.301 -11.0912 399.301 15.9707V79.4906C399.301 106.553 377.363 128.491 350.301 128.491H134.051C106.989 128.491 85.0508 106.553 85.0508 79.4906V15.9707Z" fill="#91FFB4" fill-opacity="0.5"/>
<path d="M-11.3203 549.918C-11.3203 522.856 10.6177 500.918 37.6797 500.918H253.93C280.992 500.918 302.93 522.856 302.93 549.918V613.438C302.93 640.5 280.992 662.438 253.93 662.438H37.6797C10.6177 662.438 -11.3203 640.5 -11.3203 613.438V549.918Z" fill="#E85A1D"/>
<path d="M329.887 277.736C329.887 250.674 351.825 228.736 378.887 228.736H595.137C622.199 228.736 644.137 250.674 644.137 277.736V341.256C644.137 368.318 622.199 390.256 595.137 390.256H378.887C351.825 390.256 329.887 368.318 329.887 341.256V277.736Z" fill="#82589C"/>
<path d="M224.736 128.49C224.736 118.859 232.544 111.051 242.176 111.051V111.051C251.807 111.051 259.615 118.859 259.615 128.49V128.49C259.615 138.121 251.807 145.929 242.176 145.929V145.929C232.544 145.929 224.736 138.121 224.736 128.49V128.49Z" fill="#F2F2F2"/>
<path d="M259.615 128.49C259.615 119.009 252.049 111.296 242.626 111.057L242.176 111.051C232.544 111.051 224.736 118.859 224.736 128.49L224.742 128.94C224.977 138.214 232.452 145.689 241.726 145.924L242.176 145.93C251.657 145.93 259.37 138.364 259.609 128.94L259.615 128.49ZM275.615 128.49C275.615 146.958 260.644 161.93 242.176 161.93C223.708 161.93 208.736 146.958 208.736 128.49C208.736 110.022 223.708 95.0508 242.176 95.0508C260.644 95.0509 275.615 110.022 275.615 128.49Z" fill="#F2F2F2"/>
<path d="M469.572 228.738C469.572 219.107 477.38 211.299 487.012 211.299V211.299C496.643 211.299 504.451 219.107 504.451 228.738V228.738C504.451 238.37 496.643 246.177 487.012 246.177V246.177C477.38 246.177 469.572 238.37 469.572 228.738V228.738Z" fill="#F2F2F2"/>
<path d="M504.451 228.738C504.451 219.257 496.885 211.544 487.462 211.305L487.012 211.299C477.38 211.299 469.572 219.107 469.572 228.738L469.578 229.188C469.813 238.462 477.288 245.937 486.562 246.172L487.012 246.178C496.492 246.178 504.206 238.612 504.445 229.188L504.451 228.738ZM520.451 228.738C520.451 247.206 505.48 262.178 487.012 262.178C468.544 262.178 453.572 247.206 453.572 228.738C453.572 210.27 468.544 195.299 487.012 195.299C505.48 195.299 520.451 210.27 520.451 228.738Z" fill="#F2F2F2"/>
<path d="M128.365 500.918C128.365 491.286 136.173 483.479 145.804 483.479V483.479C155.436 483.479 163.244 491.286 163.244 500.918V500.918C163.244 510.549 155.436 518.357 145.804 518.357V518.357C136.173 518.357 128.365 510.549 128.365 500.918V500.918Z" fill="#F2F2F2"/>
<path d="M163.244 500.918C163.244 491.437 155.678 483.723 146.255 483.484L145.805 483.479C136.173 483.479 128.365 491.287 128.365 500.918L128.371 501.368C128.606 510.642 136.081 518.117 145.354 518.352L145.805 518.357C155.285 518.357 162.999 510.791 163.238 501.368L163.244 500.918ZM179.244 500.918C179.244 519.386 164.273 534.357 145.805 534.357C127.337 534.357 112.365 519.386 112.365 500.918C112.365 482.45 127.337 467.479 145.805 467.479C164.273 467.479 179.244 482.45 179.244 500.918Z" fill="#F2F2F2"/>
</g>
</svg>
